<svg width="480" height="50" xmlns="http://www.w3.org/2000/svg">
 <!-- Created with SVG Editor - http://github.com/mzalive/SVG Editor/ -->

 <g>
  <title>background</title>
  <rect x="-1" y="-1" width="482" height="52" id="canvas_background" fill="#fff"/>
  <g id="canvasGrid" display="none">
   <rect id="svg_6" width="100%" height="100%" x="0" y="0" stroke-width="0" fill="url(#gridpattern)"/>
  </g>
 </g>
 <g>
  <title>Layer 1</title>
  <line fill="none" stroke="#000" stroke-width="3" x1="80" y1="0" x2="80" y2="256" id="svg_1" stroke-linejoin="undefined" stroke-linecap="undefined"/>
  <line fill="none" stroke="#000" stroke-width="3" x1="1" y1="27" x2="481" y2="27" id="svg_2" stroke-linejoin="undefined" stroke-linecap="undefined"/>
  <line fill="none" stroke="#000" stroke-width="3" y1="123" x2="480" y2="123" id="svg_3" stroke-linejoin="undefined" stroke-linecap="undefined"/>
  <rect fill="#000000" stroke="#000" stroke-width="3" stroke-opacity="null" x="153" y="7" width="100" height="40" id="svg_4"/>
  <rect fill="none" stroke="#000" stroke-width="3" stroke-opacity="null" fill-opacity="null" x="556" y="74.970058" width="0.66665" height="0.66665" id="svg_5"/>
  <rect fill="#000000" stroke="#000" stroke-width="3" stroke-opacity="null" x="150" y="103" width="100" height="40" id="svg_7"/>
  <path fill="#000000" stroke="#000" stroke-width="0" stroke-opacity="null" fill-opacity="null" opacity="0.5" d="m450.504128,151.454381c0,0 -13.000256,-11.000216 -13.000256,-11.000216" id="svg_12"/>
  <path fill="#000000" stroke="#000" stroke-width="0" stroke-opacity="null" fill-opacity="null" d="m420.000013,131.359143l10.575664,-8.694985l-10.575664,-8.695048l6.044527,-4.969115l16.621474,13.664163l-16.621474,13.668402" id="svg_14" transform="rotate(180 431.3330383300781,122.66627502441406) "/>
  <path transform="rotate(180 433.3330078125,25.666280746459957) " fill="#000000" stroke="#000" stroke-width="0" stroke-opacity="null" fill-opacity="null" d="m422.000011,34.35914l10.57567,-8.69498l-10.57567,-8.69505l6.04453,-4.96911l16.62147,13.66416l-16.62147,13.6684" id="svg_15"/>
  <text fill="#000000" stroke="#000" stroke-width="0" stroke-opacity="null" x="260" y="100" id="svg_16" font-size="15" font-family="Helvetica, Arial, sans-serif" text-anchor="start" xml:space="preserve" font-style="normal" font-weight="bold">Обратный трубопровод ЦО</text>
 </g>
</svg>