<svg width="480" height="200" xmlns="http://www.w3.org/2000/svg">
 <!-- Created with SVG Editor - http://github.com/mzalive/SVG Editor/ -->

 <g>
  <title>background</title>
  <rect x="-1" y="-1" width="482" height="202" id="canvas_background" fill="#fff"/>
  <g id="canvasGrid" display="none">
   <rect id="svg_6" width="100%" height="100%" x="0" y="0" stroke-width="0" fill="url(#gridpattern)"/>
  </g>
 </g>
 <g>
  <title>Layer 1</title>
  <line fill="none" stroke="#000" stroke-width="3" x1="80" y1="0" x2="80" y2="256" id="svg_1" stroke-linejoin="undefined" stroke-linecap="undefined"/>
  <line fill="none" stroke="#000" stroke-width="3" x1="0" y1="53" x2="480" y2="53" id="svg_2" stroke-linejoin="undefined" stroke-linecap="undefined"/>
  <line fill="none" stroke="#000" stroke-width="3" y1="123" x2="480" y2="123" id="svg_3" stroke-linejoin="undefined" stroke-linecap="undefined"/>
  <rect fill="#000000" stroke="#000" stroke-width="3" stroke-opacity="null" x="149" y="33" width="100" height="40" id="svg_4"/>
  <rect fill="none" stroke="#000" stroke-width="3" stroke-opacity="null" fill-opacity="null" x="556" y="74.970058" width="0.66665" height="0.66665" id="svg_5"/>
  <rect fill="#000000" stroke="#000" stroke-width="3" stroke-opacity="null" x="268" y="155" width="60" height="30" id="svg_7"/>
  <text fill="#000000" stroke="#000" stroke-width="0" stroke-opacity="null" x="260" y="30.000309" id="svg_8" font-size="15" font-family="Helvetica, Arial, sans-serif" text-anchor="start" xml:space="preserve" font-style="normal" font-weight="bold">Подающий трубопровод ТС</text>
  <path fill="#000000" stroke="#000" stroke-width="0" stroke-opacity="null" fill-opacity="null" opacity="0.5" d="m450.50413,151.45438c0,0 -13.00026,-11.00021 -13.00026,-11.00021" id="svg_12"/>
  <path fill="#000000" stroke="#000" stroke-width="0" stroke-opacity="null" fill-opacity="null" d="m420.00001,131.35914l10.57567,-8.69498l-10.57567,-8.69505l6.04453,-4.96912l16.62147,13.66417l-16.62147,13.6684" id="svg_14" transform="rotate(180 431.3330078125,122.66627502441406) "/>
  <path fill="#000000" stroke="#000" stroke-width="0" stroke-opacity="null" fill-opacity="null" d="m420.000003,177.859283l10.57567,-8.69499l-10.57567,-8.69505l6.04453,-4.96911l16.62147,13.66416l-16.62147,13.6684" id="svg_15"/>
  <text fill="#000000" stroke="#000" stroke-width="0" stroke-opacity="null" x="260" y="100" id="svg_16" font-size="15" font-family="Helvetica, Arial, sans-serif" text-anchor="start" xml:space="preserve" font-style="normal" font-weight="bold">Обратный трубопровод ТС</text>
  <rect fill="#000000" stroke="#000" stroke-width="3" stroke-opacity="null" x="150" y="103" width="100" height="40" id="svg_9"/>
  <line stroke-linecap="undefined" stroke-linejoin="undefined" id="svg_10" y2="169.500001" x2="480" y1="169.500001" x1="325" fill-opacity="null" stroke-opacity="null" stroke-width="2" stroke="#000" fill="none"/>
  <line stroke-linecap="undefined" stroke-linejoin="undefined" id="svg_13" y2="124" x2="124" y1="171" x1="124" fill-opacity="null" stroke-opacity="null" stroke-width="2" stroke="#000" fill="none"/>
  <line stroke-linecap="undefined" stroke-linejoin="undefined" id="svg_17" y2="170" x2="266.503496" y1="170" x1="123.5" fill-opacity="null" stroke-opacity="null" stroke-width="2" stroke="#000" fill="none"/>
  <text fill="#000000" stroke="#000" stroke-width="0" stroke-opacity="null" x="260" y="147" id="svg_18" font-size="15" font-family="Helvetica, Arial, sans-serif" text-anchor="start" xml:space="preserve" font-style="normal" font-weight="bold">Подпиточный трубопровод</text>
  <path fill="#000000" stroke="#000" stroke-width="0" stroke-opacity="null" fill-opacity="null" d="m420.00001,61.85945l10.57567,-8.69499l-10.57567,-8.69505l6.04453,-4.96911l16.62147,13.66416l-16.62147,13.6684" id="svg_19"/>
 </g>
</svg>